<svg width="600" height="176" viewBox="0 0 600 176" fill="none" xmlns="http://www.w3.org/2000/svg">
<path d="M11.952 39.2H57.744C68.688 39.2 78.336 41.312 86.688 45.536C95.136 49.664 101.664 55.52 106.272 63.104C110.976 70.688 113.328 79.52 113.328 89.6C113.328 99.68 110.976 108.512 106.272 116.096C101.664 123.68 95.136 129.584 86.688 133.808C78.336 137.936 68.688 140 57.744 140H11.952V39.2ZM56.592 120.848C66.672 120.848 74.688 118.064 80.64 112.496C86.688 106.832 89.712 99.2 89.712 89.6C89.712 80 86.688 72.416 80.64 66.848C74.688 61.184 66.672 58.352 56.592 58.352H35.28V120.848H56.592ZM150.793 72.752C153.481 69.008 157.081 66.176 161.593 64.256C166.201 62.336 171.481 61.376 177.433 61.376V82.112C174.937 81.92 173.257 81.824 172.393 81.824C165.961 81.824 160.921 83.648 157.273 87.296C153.625 90.848 151.801 96.224 151.801 103.424V140H129.337V62.528H150.793V72.752ZM221.616 61.376C233.616 61.376 242.832 64.256 249.264 70.016C255.696 75.68 258.912 84.272 258.912 95.792V140H237.888V130.352C233.664 137.552 225.792 141.152 214.272 141.152C208.32 141.152 203.136 140.144 198.72 138.128C194.4 136.112 191.088 133.328 188.784 129.776C186.48 126.224 185.328 122.192 185.328 117.68C185.328 110.48 188.016 104.816 193.392 100.688C198.864 96.56 207.264 94.496 218.592 94.496H236.448C236.448 89.6 234.96 85.856 231.984 83.264C229.008 80.576 224.544 79.232 218.592 79.232C214.464 79.232 210.384 79.904 206.352 81.248C202.416 82.496 199.056 84.224 196.272 86.432L188.208 70.736C192.432 67.76 197.472 65.456 203.328 63.824C209.28 62.192 215.376 61.376 221.616 61.376ZM219.888 126.032C223.728 126.032 227.136 125.168 230.112 123.44C233.088 121.616 235.2 118.976 236.448 115.52V107.6H221.04C211.824 107.6 207.216 110.624 207.216 116.672C207.216 119.552 208.32 121.856 210.528 123.584C212.832 125.216 215.952 126.032 219.888 126.032ZM303.867 64.256H323.739V81.536H304.443V140H281.979V81.536H270.027V64.256H281.979V60.8C281.979 51.968 284.571 44.96 289.755 39.776C295.035 34.592 302.427 32 311.931 32C315.291 32 318.459 32.384 321.435 33.152C324.507 33.824 327.051 34.832 329.067 36.176L323.163 52.448C320.571 50.624 317.547 49.712 314.091 49.712C307.275 49.712 303.867 53.456 303.867 60.944V64.256Z" fill="white"/>
<path d="M378.707 135.392C376.787 137.12 374.387 138.464 371.507 139.424C368.723 140.288 365.795 140.72 362.723 140.72C355.619 140.72 350.147 138.8 346.307 134.96C342.467 131.12 340.547 125.696 340.547 118.688V72.896H327.011V64.256H340.547V47.696H350.771V64.256H373.811V72.896H350.771V118.112C350.771 122.624 351.875 126.08 354.083 128.48C356.387 130.784 359.651 131.936 363.875 131.936C365.987 131.936 368.003 131.6 369.923 130.928C371.939 130.256 373.667 129.296 375.107 128.048L378.707 135.392ZM425.607 140.72C418.311 140.72 411.735 139.088 405.879 135.824C400.023 132.464 395.415 127.856 392.055 122C388.695 116.144 387.015 109.52 387.015 102.128C387.015 94.736 388.695 88.112 392.055 82.256C395.415 76.4 400.023 71.84 405.879 68.576C411.735 65.312 418.311 63.68 425.607 63.68C432.903 63.68 439.479 65.312 445.335 68.576C451.191 71.84 455.751 76.4 459.015 82.256C462.375 88.112 464.055 94.736 464.055 102.128C464.055 109.52 462.375 116.144 459.015 122C455.751 127.856 451.191 132.464 445.335 135.824C439.479 139.088 432.903 140.72 425.607 140.72ZM425.607 131.648C430.983 131.648 435.783 130.448 440.007 128.048C444.327 125.552 447.687 122.048 450.087 117.536C452.487 113.024 453.687 107.888 453.687 102.128C453.687 96.368 452.487 91.232 450.087 86.72C447.687 82.208 444.327 78.752 440.007 76.352C435.783 73.856 430.983 72.608 425.607 72.608C420.231 72.608 415.383 73.856 411.063 76.352C406.839 78.752 403.479 82.208 400.983 86.72C398.583 91.232 397.383 96.368 397.383 102.128C397.383 107.888 398.583 113.024 400.983 117.536C403.479 122.048 406.839 125.552 411.063 128.048C415.383 130.448 420.231 131.648 425.607 131.648ZM515.888 140.72C508.592 140.72 502.016 139.088 496.16 135.824C490.304 132.464 485.696 127.856 482.336 122C478.976 116.144 477.296 109.52 477.296 102.128C477.296 94.736 478.976 88.112 482.336 82.256C485.696 76.4 490.304 71.84 496.16 68.576C502.016 65.312 508.592 63.68 515.888 63.68C523.184 63.68 529.76 65.312 535.616 68.576C541.472 71.84 546.032 76.4 549.296 82.256C552.656 88.112 554.336 94.736 554.336 102.128C554.336 109.52 552.656 116.144 549.296 122C546.032 127.856 541.472 132.464 535.616 135.824C529.76 139.088 523.184 140.72 515.888 140.72ZM515.888 131.648C521.264 131.648 526.064 130.448 530.288 128.048C534.608 125.552 537.968 122.048 540.368 117.536C542.768 113.024 543.968 107.888 543.968 102.128C543.968 96.368 542.768 91.232 540.368 86.72C537.968 82.208 534.608 78.752 530.288 76.352C526.064 73.856 521.264 72.608 515.888 72.608C510.512 72.608 505.664 73.856 501.344 76.352C497.12 78.752 493.76 82.208 491.264 86.72C488.864 91.232 487.664 96.368 487.664 102.128C487.664 107.888 488.864 113.024 491.264 117.536C493.76 122.048 497.12 125.552 501.344 128.048C505.664 130.448 510.512 131.648 515.888 131.648ZM575.209 33.152H585.433V140H575.209V33.152Z" fill="#00FFF0" fill-opacity="0.7"/>
</svg>
